<?xml version="1.0" encoding="UTF-8" standalone="no"?>
<svg width="1200" height="800" xmlns="http://www.w3.org/2000/svg">
    <style>
        .actor { fill: white; stroke: #000000; stroke-width: 2; }
        .usecase { fill: white; stroke: #000000; stroke-width: 1.5; }
        .text { font-family: 'Arial', sans-serif; font-size: 14px; }
        .title { font-family: 'Arial', sans-serif; font-size: 24px; font-weight: bold; }
        .subtitle { font-family: 'Arial', sans-serif; font-size: 16px; }
        .relationship { stroke: #000000; stroke-width: 1.5; fill: none; }
        .system-boundary { fill: none; stroke: #000000; stroke-width: 1; stroke-dasharray: 5,5; }
    </style>

    <!-- Title -->
    <text x="600" y="40" text-anchor="middle" class="title">Time Complexity Analysis System</text>
    <text x="600" y="70" text-anchor="middle" class="subtitle">Use Case Diagram</text>

    <!-- System Boundary -->
    <rect x="200" y="100" width="800" height="600" class="system-boundary"/>
    <text x="220" y="130" class="subtitle">Time Complexity Analyzer System</text>

    <!-- Actor -->
    <circle cx="100" cy="300" r="20" class="actor"/>
    <line x1="100" y1="320" x2="100" y2="380" class="actor"/>
    <line x1="60" y1="350" x2="140" y2="350" class="actor"/>
    <line x1="100" y1="380" x2="60" y2="420" class="actor"/>
    <line x1="100" y1="380" x2="140" y2="420" class="actor"/>
    <text x="100" y="450" text-anchor="middle" class="text">User</text>

    <!-- Primary Use Cases -->
    <!-- Input Code -->
    <ellipse cx="300" cy="200" rx="80" ry="30" class="usecase"/>
    <text x="300" y="205" text-anchor="middle" class="text">Input Code</text>

    <!-- Analyze Time Complexity -->
    <ellipse cx="500" cy="250" rx="90" ry="35" class="usecase"/>
    <text x="500" y="255" text-anchor="middle" class="text">Analyze Time</text>
    <text x="500" y="270" text-anchor="middle" class="text">Complexity</text>

    <!-- View Results -->
    <ellipse cx="300" cy="350" rx="80" ry="30" class="usecase"/>
    <text x="300" y="355" text-anchor="middle" class="text">View Results</text>

    <!-- Compare Algorithms -->
    <ellipse cx="500" cy="400" rx="90" ry="35" class="usecase"/>
    <text x="500" y="405" text-anchor="middle" class="text">Compare</text>
    <text x="500" y="420" text-anchor="middle" class="text">Algorithms</text>

    <!-- Secondary Use Cases -->
    <!-- Select Algorithm -->
    <ellipse cx="700" cy="200" rx="80" ry="30" class="usecase"/>
    <text x="700" y="205" text-anchor="middle" class="text">Select Algorithm</text>

    <!-- Generate Report -->
    <ellipse cx="700" cy="350" rx="80" ry="30" class="usecase"/>
    <text x="700" y="355" text-anchor="middle" class="text">Generate Report</text>

    <!-- View Visualization -->
    <ellipse cx="500" cy="500" rx="80" ry="30" class="usecase"/>
    <text x="500" y="505" text-anchor="middle" class="text">View Visualization</text>

    <!-- Export Results -->
    <ellipse cx="700" cy="500" rx="80" ry="30" class="usecase"/>
    <text x="700" y="505" text-anchor="middle" class="text">Export Results</text>

    <!-- Relationships -->
    <!-- User to Primary Use Cases -->
    <line x1="140" y1="300" x2="220" y2="200" class="relationship"/>
    <line x1="140" y1="300" x2="220" y2="350" class="relationship"/>
    <line x1="140" y1="300" x2="410" y2="400" class="relationship"/>

    <!-- Include Relationships -->
    <path d="M 380 200 L 420 250" class="relationship" marker-end="url(#arrow)"/>
    <text x="420" y="210" class="text" style="font-style: italic">«include»</text>

    <path d="M 590 250 L 620 200" class="relationship" marker-end="url(#arrow)"/>
    <text x="630" y="210" class="text" style="font-style: italic">«include»</text>

    <path d="M 380 350 L 620 350" class="relationship" marker-end="url(#arrow)"/>
    <text x="500" y="330" class="text" style="font-style: italic">«include»</text>

    <path d="M 590 400 L 620 350" class="relationship" marker-end="url(#arrow)"/>
    <text x="630" y="360" class="text" style="font-style: italic">«include»</text>

    <!-- Extend Relationships -->
    <path d="M 380 350 L 420 500" class="relationship" stroke-dasharray="5,5"/>
    <text x="420" y="450" class="text" style="font-style: italic">«extend»</text>

    <path d="M 580 500 L 620 500" class="relationship" stroke-dasharray="5,5"/>
    <text x="600" y="480" class="text" style="font-style: italic">«extend»</text>

    <!-- Arrow Marker -->
    <defs>
        <marker id="arrow" viewBox="0 0 10 10" refX="9" refY="5"
                markerWidth="6" markerHeight="6" orient="auto-start-reverse">
            <path d="M 0 0 L 10 5 L 0 10 z" fill="#000000"/>
        </marker>
    </defs>

    <!-- Legend -->
    <rect x="850" y="100" width="120" height="160" class="system-boundary"/>
    <text x="860" y="125" class="subtitle">Legend</text>
    
    <!-- Actor Legend -->
    <circle cx="870" cy="150" r="10" class="actor"/>
    <text x="890" y="155" class="text">Actor</text>
    
    <!-- Use Case Legend -->
    <ellipse cx="870" cy="180" rx="20" ry="10" class="usecase"/>
    <text x="910" y="185" class="text">Use Case</text>
    
    <!-- Include Legend -->
    <line x1="860" y1="210" x2="900" y2="210" class="relationship"/>
    <text x="920" y="215" class="text">Include</text>
    
    <!-- Extend Legend -->
    <line x1="860" y1="240" x2="900" y2="240" class="relationship" stroke-dasharray="5,5"/>
    <text x="920" y="245" class="text">Extend</text>
</svg>
