<?xml version="1.0" encoding="UTF-8" standalone="no"?>
<svg width="1200" height="1600" xmlns="http://www.w3.org/2000/svg">
    <style>
        .class-box { fill: white; stroke: black; stroke-width: 2; }
        .class-name { font-weight: bold; font-family: Arial; }
        .class-content { font-family: Arial; }
        .relationship { stroke: black; stroke-width: 2; fill: none; marker-end: url(#arrow); }
        .composition { stroke: black; stroke-width: 2; fill: none; marker-end: url(#diamond); }
        .aggregation { stroke: black; stroke-width: 2; fill: none; marker-end: url(#openDiamond); }
    </style>
    
    <!-- Arrow markers -->
    <defs>
        <marker id="arrow" viewBox="0 0 10 10" refX="9" refY="5"
                markerWidth="6" markerHeight="6" orient="auto">
            <path d="M 0 0 L 10 5 L 0 10 z" fill="black"/>
        </marker>
        <marker id="diamond" viewBox="0 0 16 10" refX="16" refY="5"
                markerWidth="10" markerHeight="6" orient="auto">
            <path d="M 0 5 L 8 0 L 16 5 L 8 10 z" fill="black"/>
        </marker>
        <marker id="openDiamond" viewBox="0 0 16 10" refX="16" refY="5"
                markerWidth="10" markerHeight="6" orient="auto">
            <path d="M 0 5 L 8 0 L 16 5 L 8 10 z" fill="white" stroke="black"/>
        </marker>
    </defs>

    <!-- Core Analysis Classes -->
    <g transform="translate(50,50)">
        <!-- CodeComplexityAnalyzer -->
        <rect class="class-box" x="0" y="0" width="200" height="150"/>
        <text x="10" y="30" class="class-name">CodeComplexityAnalyzer</text>
        <line x1="0" y1="40" x2="200" y2="40" stroke="black"/>
        <text x="10" y="60" class="class-content">- sourceFile: ts.SourceFile</text>
        <text x="10" y="80" class="class-content">- code: string</text>
        <text x="10" y="100" class="class-content">- algorithm: Algorithm</text>
        <text x="10" y="120" class="class-content">- parser: CodeParser</text>
        <line x1="0" y1="130" x2="200" y2="130" stroke="black"/>
        <text x="10" y="145" class="class-content">+ analyzeCode(): ComplexityResult</text>
    </g>

    <!-- Algorithm -->
    <g transform="translate(300,50)">
        <rect class="class-box" x="0" y="0" width="180" height="120"/>
        <text x="10" y="30" class="class-name">Algorithm</text>
        <line x1="0" y1="40" x2="180" y2="40" stroke="black"/>
        <text x="10" y="60" class="class-content">- name: string</text>
        <text x="10" y="80" class="class-content">- complexity: Complexity</text>
        <line x1="0" y1="90" x2="180" y2="90" stroke="black"/>
        <text x="10" y="110" class="class-content">+ analyze(): Complexity</text>
    </g>

    <!-- Result Classes -->
    <g transform="translate(50,250)">
        <rect class="class-box" x="0" y="0" width="200" height="130"/>
        <text x="10" y="30" class="class-name">ComplexityResult</text>
        <line x1="0" y1="40" x2="200" y2="40" stroke="black"/>
        <text x="10" y="60" class="class-content">+ timeComplexity: string</text>
        <text x="10" y="80" class="class-content">+ spaceComplexity: string</text>
        <text x="10" y="100" class="class-content">+ details: CodeDetail[]</text>
    </g>

    <!-- Relationships -->
    <path class="composition" d="M 250 125 L 300 125"/>
    <path class="relationship" d="M 150 200 L 150 250"/>
    
    <!-- UI Components -->
    <g transform="translate(550,50)">
        <rect class="class-box" x="0" y="0" width="180" height="120"/>
        <text x="10" y="30" class="class-name">HomePage</text>
        <line x1="0" y1="40" x2="180" y2="40" stroke="black"/>
        <text x="10" y="60" class="class-content">- code: string</text>
        <text x="10" y="80" class="class-content">- results: ComplexityResult</text>
        <line x1="0" y1="90" x2="180" y2="90" stroke="black"/>
        <text x="10" y="110" class="class-content">+ handleSubmit(): void</text>
    </g>

    <!-- Data Types -->
    <g transform="translate(550,250)">
        <rect class="class-box" x="0" y="0" width="180" height="140"/>
        <text x="10" y="30" class="class-name">Complexity</text>
        <line x1="0" y1="40" x2="180" y2="40" stroke="black"/>
        <text x="10" y="60" class="class-content">O1</text>
        <text x="10" y="80" class="class-content">LOGN</text>
        <text x="10" y="100" class="class-content">N</text>
        <text x="10" y="120" class="class-content">N2</text>
    </g>

    <!-- Legend -->
    <g transform="translate(50,450)">
        <rect x="0" y="0" width="200" height="100" fill="white" stroke="black"/>
        <text x="10" y="30" class="class-name">Legend</text>
        <line x1="10" y1="50" x2="60" y2="50" class="composition"/>
        <text x="70" y="55" class="class-content">Composition</text>
        <line x1="10" y1="80" x2="60" y2="80" class="relationship"/>
        <text x="70" y="85" class="class-content">Dependency</text>
    </g>
</svg>
